#!OML:ASF H:\Male1\Project 1\Capture day 1\Session 1\Male1.ASF
:FULLY-SPECIFIED
:DEGREES
268
root -21.6483 14.6559 1.21974 180.197 -4.18436 -179.72
lowerback 8.21376 0.498736 -3.48576
upperback 4.27852 0.0385446 -0.903924
thorax -0.187056 -0.180865 1.02235
lowerneck -7.4154 -3.49752 -1.75767
upperneck 20.6512 -6.83788 4.87589
head 7.81009 -3.40125 1.221
rclavicle 3.8763e-015 -4.77083e-015
rhumerus -38.8135 9.30772 -88.842
rradius 46.4388
rwrist -25.4977
rhand -21.3065 3.77642
rfingers 7.12502
rthumb 5.07845 -26.1427
lclavicle 3.8763e-015 -4.77083e-015
lhumerus -46.0828 13.9205 73.9434
lradius 34.7377
lwrist 9.16683
lhand -21.7405 18.9111
lfingers 7.12502
lthumb 4.65939 48.8398
rfemur -17.7312 22.4229 22.0919
rtibia 46.181
rfoot -23.9875 0.50096
rtoes -25.7492
lfemur -15.1017 -20.259 -12.9215
ltibia 35.8204
lfoot -22.7696 10.7539
ltoes -33.187
269
root -21.7802 14.685 1.24327 180.435 -1.37772 -179.986
lowerback 8.25583 0.444446 -4.35395
upperback 4.36017 -0.133948 -1.11313
thorax -0.115756 -0.295879 1.3067
lowerneck -7.33289 -3.98414 -2.0663
upperneck 20.3843 -7.61425 5.41393
head 7.77001 -3.76467 1.37656
rclavicle 3.37934e-015 1.90833e-014
rhumerus -38.1639 9.29804 -89.1029
rradius 45.9779
rwrist -25.2822
rhand -21.3426 3.45787
rfingers 7.12502
rthumb 5.04356 -26.4621
lclavicle 3.37934e-015 1.90833e-014
lhumerus -45.6407 13.3458 74.2831
lradius 34.308
lwrist 9.35645
lhand -21.1452 18.8762
lfingers 7.12502
lthumb 5.23412 48.7916
rfemur -18.926 21.9114 21.2213
rtibia 46.9537
rfoot -23.6257 0.588311
rtoes -28.2085
lfemur -14.3056 -19.1999 -13.9073
ltibia 35.3166
lfoot -22.7957 12.1265
ltoes -31.6338
270
root -21.9099 14.7154 1.26405 180.611 1.41308 -180.119
lowerback 8.27611 -0.155905 -5.11962
upperback 4.43461 -0.153136 -1.3381
thorax -0.0139337 0.0362146 1.50372
lowerneck -7.3242 -5.84868 -2.20461
upperneck 20.4405 -7.92766 5.59039
head 7.81776 -3.0557 1.54088
rclavicle 6.36111e-015 9.54166e-015
rhumerus -37.5603 9.23955 -89.374
rradius 45.5502
rwrist -25.0522
rhand -21.3123 2.98057
rfingers 7.12502
rthumb 5.07277 -26.9387
lclavicle 6.36111e-015 9.54166e-015
lhumerus -45.2324 12.3673 74.7367
lradius 34.1448
lwrist 9.54055
lhand -20.4835 18.7245
lfingers 7.12502
lthumb 5.873 48.6231
rfemur -19.9933 21.1785 20.6611
rtibia 47.6315
rfoot -23.3843 0.105278
rtoes -30.5738
lfemur -13.4921 -18.3828 -14.7668
ltibia 34.8048
lfoot -23.016 13.576
ltoes -29.5977
271
root -22.0353 14.7449 1.28124 180.73 4.20723 -179.949
lowerback 8.30453 -0.218472 -5.49375
upperback 4.51886 -0.256421 -1.44446
thorax 0.0697172 -0.0214123 1.61118
lowerneck -7.36231 -6.26496 -2.53044
upperneck 20.4416 -8.60252 6.1437
head 7.89592 -3.36215 1.70704
rclavicle -7.95139e-015 3.65764e-014
rhumerus -37.0478 9.18092 -89.6355
rradius 45.2021
rwrist -24.7521
rhand -21.137 2.35249
rfingers 7.12502
rthumb 5.24208 -27.5627
lclavicle -7.95139e-015 3.65764e-014
lhumerus -44.9241 11.0939 75.2487
lradius 34.2665
lwrist 9.69849
lhand -20.0447 18.4477
lfingers 7.12502
lthumb 6.2967 48.3341
rfemur -20.8491 20.3231 20.626
rtibia 48.1433
rfoot -23.2392 -1.07294
rtoes -32.771
lfemur -12.6773 -17.7422 -15.3085
ltibia 34.3777
lfoot -23.5238 15.0209
ltoes -26.9759
272
root -22.156 14.772 1.29503 180.856 7.00749 -179.502
lowerback 8.33568 -0.265873 -5.58597
upperback 4.57887 -0.330198 -1.45921
thorax 0.121265 -0.0639563 1.6533
lowerneck -7.4181 -6.62855 -2.84274
upperneck 20.5173 -9.19215 6.64215
head 8.0008 -3.62557 1.85963
rclavicle -2.08724e-014 -6.99722e-014
rhumerus -36.6683 9.15907 -89.8756
rradius 44.9331
rwrist -24.3602
rhand -20.6867 1.72014
rfingers 7.12502
rthumb 5.67689 -28.1838
lclavicle -2.08724e-014 -6.99722e-014
lhumerus -44.7444 9.74335 75.7032
lradius 34.5984
lwrist 9.74254
lhand -20.0231 18.093
lfingers 7.12502
lthumb 6.31749 47.9788
rfemur -21.5052 19.3708 21.063
rtibia 48.4662
rfoot -23.1455 -2.88709
rtoes -34.5501
lfemur -11.9243 -17.1871 -15.5467
ltibia 34.0925
lfoot -24.341 16.3884
ltoes -23.8215
273
root -22.2722 14.7958 1.30536 181.056 9.82321 -178.823
lowerback 8.34466 -0.303797 -5.452
upperback 4.59632 -0.386758 -1.38351
thorax 0.136017 -0.0984034 1.66116
lowerneck -7.45878 -6.9139 -3.16138
upperneck 20.6218 -9.65873 7.08279
head 8.10809 -3.8335 2.00618
rclavicle 4.96962e-015 -3.10104e-014
rhumerus -36.4522 9.24171 -90.0976
rradius 44.7606
rwrist -23.962
rhand -20.0388 1.19214
rfingers 7.12502
rthumb 6.30232 -28.6941
lclavicle 4.96962e-015 -3.10104e-014
lhumerus -44.6869 8.50006 76.0297
lradius 35.0411
lwrist 9.68161
lhand -20.4843 17.7666
lfingers 7.12502
lthumb 5.87227 47.6652
rfemur -22.0098 18.3663 21.8667
rtibia 48.6147
rfoot -23.0809 -5.08988
rtoes -35.4674
lfemur -11.2781 -16.6126 -15.5202
ltibia 33.9538
lfoot -25.422 17.6335
ltoes -20.3265
274
root -22.3841 14.8149 1.31317 181.334 12.6247 -178.081
lowerback 8.34458 -0.348338 -5.27314
upperback 4.56841 -0.456954 -1.24586
thorax 0.108947 -0.140926 1.70907
lowerneck -7.45089 -7.10987 -3.46728
upperneck 20.6936 -9.97842 7.40433
head 8.18321 -3.98479 2.12745
rclavicle 5.96354e-015 5.88403e-014
rhumerus -36.4079 9.51888 -90.2992
rradius 44.6978
rwrist -23.6956
rhand -19.3229 0.867809
rfingers 7.12502
rthumb 6.99345 -28.9967
lclavicle 5.96354e-015 5.88403e-014
lhumerus -44.7194 7.52068 76.1972
lradius 35.4991
lwrist 9.57057
lhand -21.3481 17.5867
lfingers 7.12502
lthumb 5.03821 47.5068
rfemur -22.4014 17.2908 22.8102
rtibia 48.6492
rfoot -23.0403 -7.51516
rtoes -35.6461
lfemur -10.731 -15.9745 -15.4139
ltibia 33.9035
lfoot -26.6725 18.728
ltoes -16.663
275
root -22.4931 14.8292 1.31884 181.659 15.3752 -177.467
lowerback 8.31928 -0.387993 -5.18682
upperback 4.51623 -0.526361 -1.1226
thorax 0.0721417 -0.183843 1.79368
lowerneck -7.41713 -7.23112 -3.68925
upperneck 20.6937 -10.1833 7.61565
head 8.21354 -4.09018 2.21121
rclavicle -4.27387e-014 1.74931e-014
rhumerus -36.4817 9.88563 -90.4694
rradius 44.7203
rwrist -23.6046
rhand -18.6181 0.754226
rfingers 7.12502
rthumb 7.67379 -29.0865
lclavicle -4.27387e-014 1.74931e-014
lhumerus -44.7329 6.75849 76.2049
lradius 35.888
lwrist 9.50627
lhand -22.3607 17.5854
lfingers 7.12502
lthumb 4.06045 47.5265
rfemur -22.7327 16.1304 23.6369
rtibia 48.6482
rfoot -23.0936 -9.85464
rtoes -34.9766
lfemur -10.2575 -15.2659 -15.4323
ltibia 33.8473
lfoot -27.9709 19.6858
ltoes -13.0305
276
root -22.5995 14.8407 1.3218 181.991 18.0624 -177.125
lowerback 8.22173 -0.391862 -5.25848
upperback 4.45857 -0.550836 -1.09999
thorax 0.0685538 -0.204499 1.85861
lowerneck -7.37888 -7.30891 -3.76755
upperneck 20.6002 -10.3352 7.77716
head 8.1984 -4.16823 2.26086
rclavicle -1.09332e-014 1.51076e-014
rhumerus -36.6138 10.1353 -90.606
rradius 44.8033
rwrist -23.6453
rhand -18.0026 0.756347
rfingers 7.12502
rthumb 8.26787 -29.0619
lclavicle -1.09332e-014 1.51076e-014
lhumerus -44.6191 6.06211 76.0585
lradius 36.1493
lwrist 9.54791
lhand -23.1865 17.6125
lfingers 7.12502
lthumb 3.26298 47.5673
rfemur -23.0802 14.8487 24.1587
rtibia 48.69
rfoot -23.2869 -11.9085
rtoes -33.6429
lfemur -9.83145 -14.495 -15.7258
ltibia 33.6849
lfoot -29.2158 20.56
ltoes -9.6048
